<?xml version="1.0" encoding="UTF-8" standalone="no"?>
<!-- Created with Inkscape (http://www.inkscape.org/) -->

<svg
   width="90.186722mm"
   height="28.813129mm"
   viewBox="0 0 90.186722 28.813129"
   version="1.1"
   id="svg1"
   xml:space="preserve"
   inkscape:version="1.4 (86a8ad7, 2024-10-11)"
   sodipodi:docname="business-theme.svg"
   xmlns:inkscape="http://www.inkscape.org/namespaces/inkscape"
   xmlns:sodipodi="http://sodipodi.sourceforge.net/DTD/sodipodi-0.dtd"
   xmlns="http://www.w3.org/2000/svg"
   xmlns:svg="http://www.w3.org/2000/svg"><sodipodi:namedview
     id="namedview1"
     pagecolor="#ffffff"
     bordercolor="#000000"
     borderopacity="0.25"
     inkscape:showpageshadow="2"
     inkscape:pageopacity="0.0"
     inkscape:pagecheckerboard="0"
     inkscape:deskcolor="#d1d1d1"
     inkscape:document-units="mm"
     inkscape:zoom="2.0334082"
     inkscape:cx="172.86249"
     inkscape:cy="96.635788"
     inkscape:window-width="1920"
     inkscape:window-height="1009"
     inkscape:window-x="-8"
     inkscape:window-y="-8"
     inkscape:window-maximized="1"
     inkscape:current-layer="text1" /><defs
     id="defs1" /><g
     inkscape:label="Layer 1"
     inkscape:groupmode="layer"
     id="layer1"
     transform="translate(-40.912343,-37.471922)"><g
       id="text1"
       style="font-weight:600;font-size:16.9333px;line-height:0.8;font-family:'Lucida Bright';-inkscape-font-specification:'Lucida Bright Semi-Bold';word-spacing:0px;fill:#ffffff;stroke-width:0.635"
       aria-label="BUSINESS&#10;THEME"><path
         style="font-weight:800;font-size:11.6417px;font-family:'Open Sans';-inkscape-font-specification:'Open Sans Ultra-Bold';fill:#1a1a1a"
         d="m 74.872123,41.00954 h 2.899056 q 1.801962,0 2.569359,0.534336 0.767398,0.534336 0.767398,1.534794 0,0.545705 -0.198955,0.926561 -0.193271,0.380857 -0.494545,0.602549 -0.29559,0.221693 -0.608233,0.301275 v 0.05684 q 0.341065,0.08527 0.676446,0.284221 0.341065,0.193271 0.562758,0.585496 0.227377,0.386541 0.227377,1.051618 0,0.756029 -0.386541,1.301733 -0.380856,0.545705 -1.091409,0.841295 -0.710553,0.289906 -1.688274,0.289906 h -3.234437 z m 2.245347,3.188962 h 0.676447 q 0.557073,0 0.78445,-0.227377 0.227377,-0.233062 0.227377,-0.562758 0,-0.341066 -0.261484,-0.517283 -0.255799,-0.181901 -0.795819,-0.181901 H 77.11747 Z m 0,1.642798 v 1.745118 h 0.790135 q 0.585496,0 0.818557,-0.250114 0.233061,-0.255799 0.233061,-0.636656 0,-0.221692 -0.102319,-0.414963 Q 78.760269,46.08573 78.521523,45.966358 78.282777,45.8413 77.86213,45.8413 Z m 12.664896,-4.83176 v 5.002293 q 0,1.045934 -0.397909,1.819016 -0.39791,0.767397 -1.193729,1.188044 -0.79582,0.414963 -1.995233,0.414963 -1.716696,0 -2.620519,-0.881086 -0.903824,-0.881085 -0.903824,-2.489777 V 41.00954 h 2.256716 v 4.877236 q 0,0.881085 0.329697,1.278995 0.329697,0.39791 0.972036,0.39791 0.460439,0 0.750344,-0.170533 0.289906,-0.176217 0.420648,-0.551389 0.136426,-0.375172 0.136426,-0.966352 V 41.00954 Z m 7.179427,5.786743 q 0,0.676447 -0.341065,1.28468 -0.341066,0.602549 -1.062988,0.977721 -0.716237,0.375172 -1.853122,0.375172 -0.568442,0 -1.000458,-0.05116 -0.426332,-0.05116 -0.79582,-0.164848 -0.369487,-0.119373 -0.767397,-0.306959 v -2.000917 q 0.676446,0.341065 1.364262,0.522967 0.687815,0.176217 1.244889,0.176217 0.335381,0 0.545704,-0.07958 0.216008,-0.07958 0.318328,-0.216008 0.10232,-0.142111 0.10232,-0.324012 0,-0.216008 -0.15348,-0.363803 -0.147795,-0.15348 -0.477491,-0.318328 -0.329697,-0.164848 -0.869717,-0.409279 -0.460439,-0.216008 -0.835611,-0.443385 -0.369487,-0.227377 -0.636655,-0.517282 -0.261484,-0.29559 -0.403594,-0.687815 -0.142111,-0.392226 -0.142111,-0.926561 0,-0.801504 0.392226,-1.341524 0.397909,-0.545705 1.102778,-0.818558 0.710553,-0.272852 1.637114,-0.272852 0.812872,0 1.460897,0.181902 0.653708,0.181901 1.170991,0.414963 l -0.687815,1.733749 q -0.534336,-0.24443 -1.051619,-0.386541 -0.517282,-0.147795 -0.960667,-0.147795 -0.289906,0 -0.477492,0.0739 -0.181901,0.06821 -0.272852,0.187586 -0.08527,0.119372 -0.08527,0.272852 0,0.19327 0.147795,0.34675 0.15348,0.153479 0.505914,0.335381 0.358119,0.176217 0.972037,0.460438 0.608233,0.272852 1.034565,0.59118 0.426331,0.312643 0.648024,0.756028 0.227377,0.437701 0.227377,1.085725 z m 1.284681,2.523885 V 41.00954 h 2.256716 v 8.310628 z m 11.965716,0 h -2.94454 l -3.03548,-5.854957 h -0.0512 q 0.0284,0.267168 0.0512,0.64234 0.0227,0.375172 0.0398,0.767397 0.0171,0.386541 0.0171,0.699184 v 3.746036 h -1.98955 V 41.00954 h 2.93316 l 3.02411,5.775375 h 0.0341 q -0.0171,-0.272853 -0.0341,-0.630971 -0.017,-0.363804 -0.0341,-0.733291 -0.0114,-0.369488 -0.0114,-0.653709 V 41.00954 h 2.00092 z m 6.73035,0 h -4.93408 V 41.00954 h 4.93408 v 1.801962 h -2.68873 v 1.307418 h 2.48978 v 1.801962 h -2.48978 v 1.568901 h 2.68873 z m 6.88953,-2.523885 q 0,0.676447 -0.34107,1.28468 -0.34106,0.602549 -1.06299,0.977721 -0.71623,0.375172 -1.85312,0.375172 -0.56844,0 -1.00046,-0.05116 -0.42633,-0.05116 -0.79582,-0.164848 -0.36948,-0.119373 -0.76739,-0.306959 v -2.000917 q 0.67644,0.341065 1.36426,0.522967 0.68781,0.176217 1.24489,0.176217 0.33538,0 0.5457,-0.07958 0.21601,-0.07958 0.31833,-0.216008 0.10232,-0.142111 0.10232,-0.324012 0,-0.216008 -0.15348,-0.363803 -0.1478,-0.15348 -0.47749,-0.318328 -0.3297,-0.164848 -0.86972,-0.409279 -0.46044,-0.216008 -0.83561,-0.443385 -0.36949,-0.227377 -0.63665,-0.517282 -0.26149,-0.29559 -0.4036,-0.687815 -0.14211,-0.392226 -0.14211,-0.926561 0,-0.801504 0.39223,-1.341524 0.39791,-0.545705 1.10277,-0.818558 0.71056,-0.272852 1.63712,-0.272852 0.81287,0 1.4609,0.181902 0.6537,0.181901 1.17099,0.414963 l -0.68782,1.733749 q -0.53433,-0.24443 -1.05162,-0.386541 -0.51728,-0.147795 -0.96066,-0.147795 -0.28991,0 -0.4775,0.0739 -0.1819,0.06821 -0.27285,0.187586 -0.0853,0.119372 -0.0853,0.272852 0,0.19327 0.14779,0.34675 0.15348,0.153479 0.50591,0.335381 0.35812,0.176217 0.97204,0.460438 0.60823,0.272852 1.03457,0.59118 0.42633,0.312643 0.64802,0.756028 0.22738,0.437701 0.22738,1.085725 z m 6.71898,0 q 0,0.676447 -0.34106,1.28468 -0.34107,0.602549 -1.06299,0.977721 -0.71624,0.375172 -1.85312,0.375172 -0.56844,0 -1.00046,-0.05116 -0.42633,-0.05116 -0.79582,-0.164848 -0.36949,-0.119373 -0.7674,-0.306959 v -2.000917 q 0.67645,0.341065 1.36426,0.522967 0.68782,0.176217 1.24489,0.176217 0.33538,0 0.54571,-0.07958 0.21601,-0.07958 0.31833,-0.216008 0.10232,-0.142111 0.10232,-0.324012 0,-0.216008 -0.15348,-0.363803 -0.1478,-0.15348 -0.4775,-0.318328 -0.32969,-0.164848 -0.86971,-0.409279 -0.46044,-0.216008 -0.83561,-0.443385 -0.36949,-0.227377 -0.63666,-0.517282 -0.26148,-0.29559 -0.40359,-0.687815 -0.14211,-0.392226 -0.14211,-0.926561 0,-0.801504 0.39222,-1.341524 0.39791,-0.545705 1.10278,-0.818558 0.71055,-0.272852 1.63711,-0.272852 0.81288,0 1.4609,0.181902 0.65371,0.181901 1.17099,0.414963 l -0.68781,1.733749 q -0.53434,-0.24443 -1.05162,-0.386541 -0.51728,-0.147795 -0.96067,-0.147795 -0.2899,0 -0.47749,0.0739 -0.1819,0.06821 -0.27285,0.187586 -0.0853,0.119372 -0.0853,0.272852 0,0.19327 0.1478,0.34675 0.15348,0.153479 0.50591,0.335381 0.35812,0.176217 0.97204,0.460438 0.60823,0.272852 1.03456,0.59118 0.42633,0.312643 0.64803,0.756028 0.22737,0.437701 0.22737,1.085725 z"
         id="path14" /><path
         style="font-weight:800;font-family:'Open Sans';-inkscape-font-specification:'Open Sans Ultra-Bold';fill:#1a1a1a"
         d="M 80.613359,62.866808 H 77.347415 V 53.449313 H 74.395663 V 50.77868 h 9.16118 v 2.670633 h -2.943484 z m 15.031611,0 H 92.362489 V 57.938953 H 88.56738 v 4.927855 H 85.284899 V 50.77868 h 3.282481 v 4.481372 h 3.795109 V 50.77868 h 3.282481 z m 9.78956,0 H 98.257725 V 50.77868 h 7.176805 v 2.621024 h -3.91086 v 1.901689 h 3.62148 v 2.621023 h -3.62148 v 2.282027 h 3.91086 z m 7.38352,0 -2.4722,-8.706428 h -0.0744 q 0.0331,0.338996 0.0662,0.917771 0.0413,0.578775 0.0744,1.2485 0.0331,0.669726 0.0331,1.289842 v 5.250315 H 107.5512 V 50.77868 h 4.34908 l 2.5218,8.582405 h 0.0662 l 2.47219,-8.582405 h 4.35735 v 12.088128 h -3.00136 v -5.299925 q 0,-0.570506 0.0165,-1.223695 0.0248,-0.661457 0.0496,-1.240232 0.0331,-0.587043 0.0579,-0.92604 h -0.0744 l -2.43912,8.689892 z m 18.28102,0 h -7.17681 V 50.77868 h 7.17681 v 2.621024 h -3.91087 v 1.901689 h 3.62148 v 2.621023 h -3.62148 v 2.282027 h 3.91087 z"
         id="path15" /></g><path
       style="fill:#000000;stroke-width:0.2"
       d="m 40.913732,51.891872 0.0014,-14.39315 14.842195,-0.0134 14.842192,-0.0134 v 14.40657 14.40656 H 55.755925 40.912343 Z m 10.517204,7.05096 c 0.0078,-1.51312 -0.0064,-2.65906 -0.03301,-2.65906 -0.0257,0 -0.638463,0.62508 -1.361691,1.38906 -0.723228,0.76398 -1.474921,1.5561 -1.670428,1.76026 l -0.355467,0.37121 -0.01876,0.88757 c -0.02273,1.07516 -0.274762,0.94044 1.728617,0.92397 l 1.697023,-0.0139 z m 4.550807,-0.15624 0.0137,-2.81529 -1.204317,-0.93821 c -1.415518,-1.10274 -1.254042,-1.05859 -1.799629,-0.49196 l -0.436563,0.4534 v 3.31765 3.31764 l 1.706562,-0.014 1.706563,-0.014 z m 4.539258,2.77561 c 0.01388,-0.0364 0.0191,-1.83593 0.01156,-3.99901 l -0.01368,-3.93286 -0.340362,0.49328 c -0.570238,0.82644 -1.9143,2.75316 -2.10659,3.01981 l -0.181086,0.25112 -0.326398,-0.2469 c -0.179518,-0.1358 -0.356164,-0.26957 -0.392544,-0.29728 -0.05269,-0.0401 -0.06615,0.44086 -0.06615,2.3638 v 2.41419 h 1.694994 c 1.30725,0 1.700772,-0.0151 1.720248,-0.0662 z m 4.575174,-7.18343 c 0,-3.98727 -0.01786,-7.24909 -0.03969,-7.24848 -0.02183,6e-4 -0.144076,0.16134 -0.271662,0.35718 -0.127586,0.19585 -0.883634,1.28861 -1.680104,2.42836 l -1.44813,2.07227 v 4.78485 c 0,2.63166 0.01588,4.80072 0.03528,4.82012 0.0194,0.0194 0.793308,0.0353 1.71979,0.0353 h 1.684514 z m -18.488696,5.26521 c 0.754001,-0.78582 1.798846,-1.88119 2.321877,-2.43417 0.523031,-0.55298 1.619417,-1.70789 2.436413,-2.56646 0.816996,-0.85857 1.599719,-1.68508 1.739383,-1.83668 l 0.253935,-0.27563 0.279228,0.20627 c 0.333266,0.2462 2.505402,1.9305 3.355344,2.60178 0.33125,0.26162 0.620026,0.45618 0.641722,0.43236 0.03747,-0.0411 1.946464,-2.77933 2.723308,-3.90622 1.315992,-1.90899 4.449132,-6.36497 4.55253,-6.47465 0.05625,-0.0597 0.147714,-0.0129 0.543854,0.27781 0.261928,0.19225 0.490736,0.34954 0.50846,0.34954 0.01772,0 0.03223,-0.87988 0.03223,-1.9553 v -1.9553 l -0.568854,0.2545 c -1.822544,0.81539 -2.87073,1.30033 -2.87073,1.32812 0,0.0174 0.220266,0.17161 0.48948,0.34269 0.269214,0.17108 0.497128,0.31639 0.506478,0.32292 0.0094,0.007 -0.242056,0.37727 -0.558676,0.82389 -0.565802,0.7981 -1.290984,1.83822 -4.21864,6.05078 -0.809078,1.16416 -1.478464,2.12516 -1.487524,2.13556 -0.01598,0.0183 -0.349568,-0.2323 -1.807196,-1.35785 -1.381166,-1.06651 -2.51457,-1.91542 -2.557323,-1.91542 -0.04053,0 -0.835796,1.10524 -3.807584,5.29166 -0.650789,0.91679 -1.893299,2.66059 -2.761133,3.87512 -0.867834,1.21453 -1.577881,2.22625 -1.577881,2.24826 0,0.0455 -0.01944,0.0652 1.831303,-1.86358 z"
       id="path2" /></g></svg>
